<svg id="calendar" xmlns="http://www.w3.org/2000/svg" width="46.641" height="46.641" viewBox="0 0 46.641 46.641">
  <g id="Сгруппировать_8" data-name="Сгруппировать 8">
    <g id="Сгруппировать_7" data-name="Сгруппировать 7">
      <ellipse id="Эллипс_3" data-name="Эллипс 3" cx="1.679" cy="1.959" rx="1.679" ry="1.959" transform="translate(33.56 17)" fill="#fff"/>
      <path id="Контур_71" data-name="Контур 71" d="M39.353,3.644H36.985V1.822a1.822,1.822,0,1,0-3.644,0V3.644h-8.29V1.822a1.822,1.822,0,1,0-3.644,0V3.644h-8.2V1.822a1.822,1.822,0,1,0-3.644,0V3.644H7.288A7.3,7.3,0,0,0,0,10.931V39.353a7.3,7.3,0,0,0,7.288,7.288H21.225a1.822,1.822,0,0,0,0-3.644H7.288a3.648,3.648,0,0,1-3.644-3.644V10.931A3.648,3.648,0,0,1,7.288,7.288H9.565V9.11a1.822,1.822,0,1,0,3.644,0V7.288h8.2V9.11a1.822,1.822,0,1,0,3.644,0V7.288h8.29V9.11a1.822,1.822,0,1,0,3.644,0V7.288h2.368A3.648,3.648,0,0,1,43,10.931V21.316a1.822,1.822,0,1,0,3.644,0V10.931A7.3,7.3,0,0,0,39.353,3.644Z" fill="#fff"/>
      <path id="Контур_72" data-name="Контур 72" d="M281.023,270a11.023,11.023,0,1,0,11.023,11.023A11.035,11.035,0,0,0,281.023,270Zm0,18.4a7.379,7.379,0,1,1,7.379-7.379A7.387,7.387,0,0,1,281.023,288.4Z" transform="translate(-245.404 -245.404)" fill="#fff"/>
      <path id="Контур_73" data-name="Контур 73" d="M375.464,333.735h-.82v-1.913a1.822,1.822,0,0,0-3.644,0v3.735a1.822,1.822,0,0,0,1.822,1.822h2.642a1.822,1.822,0,0,0,0-3.644Z" transform="translate(-337.204 -299.939)" fill="#fff"/>
      <ellipse id="Эллипс_4" data-name="Эллипс 4" cx="1.959" cy="1.959" rx="1.959" ry="1.959" transform="translate(25.163 17)" fill="#fff"/>
      <ellipse id="Эллипс_5" data-name="Эллипс 5" cx="1.959" cy="1.679" rx="1.959" ry="1.679" transform="translate(17.326 25.396)" fill="#fff"/>
      <ellipse id="Эллипс_6" data-name="Эллипс 6" cx="1.959" cy="1.959" rx="1.959" ry="1.959" transform="translate(9.49 17)" fill="#fff"/>
      <ellipse id="Эллипс_7" data-name="Эллипс 7" cx="1.959" cy="1.679" rx="1.959" ry="1.679" transform="translate(9.49 25.396)" fill="#fff"/>
      <ellipse id="Эллипс_8" data-name="Эллипс 8" cx="1.959" cy="1.959" rx="1.959" ry="1.959" transform="translate(9.49 33.233)" fill="#fff"/>
      <ellipse id="Эллипс_9" data-name="Эллипс 9" cx="1.959" cy="1.959" rx="1.959" ry="1.959" transform="translate(17.326 33.233)" fill="#fff"/>
      <ellipse id="Эллипс_10" data-name="Эллипс 10" cx="1.959" cy="1.959" rx="1.959" ry="1.959" transform="translate(17.326 17)" fill="#fff"/>
    </g>
  </g>
</svg>
