<svg xmlns="http://www.w3.org/2000/svg" width="54.673" height="38.592" viewBox="0 0 54.673 38.592">
  <path id="cash" d="M26.407,90.683c0,.467.2,1.154,1.934,1.732.736.245,2.977.992,2.977,3.179a3.224,3.224,0,0,1-2.456,3.127v.327a.763.763,0,0,1-1.525,0v-.327a3.224,3.224,0,0,1-2.456-3.127.763.763,0,0,1,1.525,0,1.693,1.693,0,1,0,3.386,0c0-.538-.23-1.164-1.934-1.732-1.976-.659-2.977-1.728-2.977-3.179a3.224,3.224,0,0,1,2.456-3.126V87.23a.763.763,0,0,1,1.525,0v.327a3.224,3.224,0,0,1,2.456,3.126.763.763,0,0,1-1.525,0,1.693,1.693,0,0,0-3.386,0ZM54.673,79.838v26.6a.763.763,0,0,1-.763.763h-.766v4.363a.762.762,0,0,1-.763.763.745.745,0,0,1-.075,0l-2.218-.22v4.8a.763.763,0,0,1-.923.746L.611,107.188H.6l-.034-.009-.026-.007-.031-.011-.011,0-.023-.008-.005,0-.027-.012-.029-.013-.007,0h0L.382,107.1l-.025-.015-.011-.008-.022-.015L.3,107.048l-.014-.012-.019-.016-.018-.016-.017-.016-.016-.016L.2,106.959l-.018-.021-.014-.016-.011-.014-.018-.024-.012-.016-.009-.014-.016-.026L.1,106.81l-.009-.017-.011-.023-.01-.022-.009-.021-.008-.019-.009-.025-.008-.023,0-.015c0-.01-.005-.02-.007-.031s0-.016-.006-.025l0-.011c0-.013,0-.026-.006-.039s0-.015,0-.023v-.006c0-.023,0-.046,0-.07v-26.6a.763.763,0,0,1,.763-.763H53.91A.763.763,0,0,1,54.673,79.838ZM46,105.678a7.964,7.964,0,0,1,7.151-7.151V87.751A7.964,7.964,0,0,1,46,80.6H8.677a7.964,7.964,0,0,1-7.151,7.151V98.527a7.964,7.964,0,0,1,7.151,7.151H46Zm-38.855,0a6.437,6.437,0,0,0-5.617-5.617v5.617H7.142Zm0-25.078H1.525v5.617A6.437,6.437,0,0,0,7.142,80.6Zm46.006,0H47.531a6.437,6.437,0,0,0,5.617,5.617Zm-4.585,31.353-34.489-3.424,34.489,7.431v-4.006Zm3.056-4.75H16.162l35.457,3.521Zm1.528-1.525v-5.617a6.437,6.437,0,0,0-5.617,5.617h5.617ZM35.3,87.152a.763.763,0,0,0-.185,1.063,8.571,8.571,0,1,1-2.094-2.094.763.763,0,0,0,.877-1.248,10.1,10.1,0,1,0,2.464,2.464A.763.763,0,0,0,35.3,87.152Z" transform="translate(0 -79.075)" fill="#fff"/>
</svg>
