<svg id="_011-instagram" data-name="011-instagram" xmlns="http://www.w3.org/2000/svg" width="24.301" height="24.301" viewBox="0 0 24.301 24.301">
  <path id="Контур_16" data-name="Контур 16" d="M211.651,209.326A2.326,2.326,0,1,1,209.326,207,2.326,2.326,0,0,1,211.651,209.326Zm0,0" transform="translate(-197.175 -197.175)"/>
  <path id="Контур_17" data-name="Контур 17" d="M146.644,137.093a2.311,2.311,0,0,0-1.324-1.324,3.86,3.86,0,0,0-1.3-.24c-.736-.034-.957-.041-2.819-.041s-2.084.007-2.819.041a3.863,3.863,0,0,0-1.3.24,2.311,2.311,0,0,0-1.324,1.324,3.861,3.861,0,0,0-.24,1.3c-.034.736-.041.956-.041,2.819s.007,2.084.041,2.819a3.86,3.86,0,0,0,.24,1.3,2.31,2.31,0,0,0,1.324,1.324,3.856,3.856,0,0,0,1.3.24c.736.034.956.041,2.819.041s2.084-.007,2.819-.041a3.856,3.856,0,0,0,1.3-.24,2.311,2.311,0,0,0,1.324-1.324,3.865,3.865,0,0,0,.24-1.3c.034-.736.041-.957.041-2.819s-.007-2.084-.041-2.819A3.856,3.856,0,0,0,146.644,137.093Zm-5.439,7.7a3.583,3.583,0,1,1,3.583-3.583A3.583,3.583,0,0,1,141.2,144.791Zm3.724-6.47a.837.837,0,1,1,.837-.837A.837.837,0,0,1,144.929,138.321Zm0,0" transform="translate(-129.054 -129.058)"/>
  <path id="Контур_18" data-name="Контур 18" d="M12.151,0A12.151,12.151,0,1,0,24.3,12.151,12.152,12.152,0,0,0,12.151,0Zm6.935,15.027a5.119,5.119,0,0,1-.324,1.694,3.568,3.568,0,0,1-2.041,2.041,5.123,5.123,0,0,1-1.693.324c-.744.034-.982.042-2.877.042s-2.133-.008-2.877-.042a5.123,5.123,0,0,1-1.693-.324A3.568,3.568,0,0,1,5.54,16.721a5.118,5.118,0,0,1-.324-1.693c-.034-.744-.042-.982-.042-2.877s.008-2.133.042-2.877A5.119,5.119,0,0,1,5.54,7.58,3.57,3.57,0,0,1,7.58,5.54a5.124,5.124,0,0,1,1.694-.324c.744-.034.982-.042,2.877-.042s2.133.008,2.877.042a5.125,5.125,0,0,1,1.694.324A3.569,3.569,0,0,1,18.761,7.58a5.118,5.118,0,0,1,.324,1.694c.034.744.042.982.042,2.877S19.12,14.283,19.086,15.027Zm0,0" transform="translate(0 0)"/>
</svg>
