<svg id="_008-youtube" data-name="008-youtube" xmlns="http://www.w3.org/2000/svg" width="24.301" height="24.301" viewBox="0 0 24.301 24.301">
  <path id="Контур_12" data-name="Контур 12" d="M224.113,212.592l3.952-2.276-3.952-2.276Zm0,0" transform="translate(-213.476 -198.165)"/>
  <path id="Контур_13" data-name="Контур 13" d="M12.151,0A12.151,12.151,0,1,0,24.3,12.151,12.152,12.152,0,0,0,12.151,0Zm7.592,12.163a20.054,20.054,0,0,1-.313,3.652,1.9,1.9,0,0,1-1.338,1.338,46.182,46.182,0,0,1-5.941.313,44.53,44.53,0,0,1-5.941-.325A1.9,1.9,0,0,1,4.871,15.8a19.966,19.966,0,0,1-.313-3.652A20.041,20.041,0,0,1,4.871,8.5,1.941,1.941,0,0,1,6.209,7.148a46.182,46.182,0,0,1,5.941-.313,44.435,44.435,0,0,1,5.941.325A1.9,1.9,0,0,1,19.43,8.5,19.031,19.031,0,0,1,19.743,12.163Zm0,0" transform="translate(0 0)"/>
</svg>
